<svg width="29" height="35" viewBox="0 0 29 35" fill="none" xmlns="http://www.w3.org/2000/svg">
<path d="M29 28.3333V30H0V28.3333L3.22222 25V15C3.22222 9.83333 6.49278 5.28333 11.2778 3.81667C11.2778 3.65 11.2778 3.5 11.2778 3.33333C11.2778 2.44928 11.6173 1.60143 12.2215 0.976311C12.8258 0.351189 13.6454 0 14.5 0C15.3546 0 16.1742 0.351189 16.7785 0.976311C17.3827 1.60143 17.7222 2.44928 17.7222 3.33333C17.7222 3.5 17.7222 3.65 17.7222 3.81667C22.5072 5.28333 25.7778 9.83333 25.7778 15V25L29 28.3333ZM17.7222 31.6667C17.7222 32.5507 17.3827 33.3986 16.7785 34.0237C16.1742 34.6488 15.3546 35 14.5 35C13.6454 35 12.8258 34.6488 12.2215 34.0237C11.6173 33.3986 11.2778 32.5507 11.2778 31.6667" fill="white"/>
</svg>
