<svg width="71" height="82" viewBox="0 0 71 82" fill="none" xmlns="http://www.w3.org/2000/svg">
<path d="M71 66.381V70.2857H0V66.381L7.88889 58.5714V35.1429C7.88889 23.0381 15.8961 12.3781 27.6111 8.9419C27.6111 8.55143 27.6111 8.2 27.6111 7.80952C27.6111 5.73831 28.4423 3.75193 29.9217 2.28736C31.4012 0.822786 33.4077 0 35.5 0C37.5923 0 39.5988 0.822786 41.0783 2.28736C42.5577 3.75193 43.3889 5.73831 43.3889 7.80952C43.3889 8.2 43.3889 8.55143 43.3889 8.9419C55.1039 12.3781 63.1111 23.0381 63.1111 35.1429V58.5714L71 66.381ZM43.3889 74.1905C43.3889 76.2617 42.5577 78.2481 41.0783 79.7126C39.5988 81.1772 37.5923 82 35.5 82C33.4077 82 31.4012 81.1772 29.9217 79.7126C28.4423 78.2481 27.6111 76.2617 27.6111 74.1905" fill="#08711F"/>
</svg>
