<svg width="33" height="34" viewBox="0 0 33 34" fill="none" xmlns="http://www.w3.org/2000/svg">
<path d="M16.5 0C18.688 0 20.7865 0.895533 22.3336 2.48959C23.8808 4.08365 24.75 6.24566 24.75 8.5C24.75 10.7543 23.8808 12.9163 22.3336 14.5104C20.7865 16.1045 18.688 17 16.5 17C14.312 17 12.2135 16.1045 10.6664 14.5104C9.11919 12.9163 8.25 10.7543 8.25 8.5C8.25 6.24566 9.11919 4.08365 10.6664 2.48959C12.2135 0.895533 14.312 0 16.5 0ZM16.5 21.25C25.6163 21.25 33 25.0537 33 29.75V34H0V29.75C0 25.0537 7.38375 21.25 16.5 21.25Z" fill="white"/>
</svg>
