<svg width="70" height="67" viewBox="0 0 70 67" fill="none" xmlns="http://www.w3.org/2000/svg">
<path d="M66.3158 55.8333V59.5556C66.3158 61.5299 65.5395 63.4235 64.1576 64.8196C62.7758 66.2157 60.9016 67 58.9474 67H7.36842C3.27895 67 0 63.65 0 59.5556V7.44444C0 5.47006 0.776313 3.57653 2.15816 2.18043C3.54001 0.784323 5.41419 0 7.36842 0H58.9474C60.9016 0 62.7758 0.784323 64.1576 2.18043C65.5395 3.57653 66.3158 5.47006 66.3158 7.44444V11.1667H33.1579C29.0684 11.1667 25.7895 14.5167 25.7895 18.6111V48.3889C25.7895 50.3633 26.5658 52.2568 27.9476 53.6529C29.3295 55.049 31.2037 55.8333 33.1579 55.8333M33.1579 48.3889H70V18.6111H33.1579M47.8947 39.0833C46.4291 39.0833 45.0234 38.4951 43.987 37.448C42.9507 36.4009 42.3684 34.9808 42.3684 33.5C42.3684 32.0192 42.9507 30.5991 43.987 29.552C45.0234 28.5049 46.4291 27.9167 47.8947 27.9167C49.3604 27.9167 50.766 28.5049 51.8024 29.552C52.8388 30.5991 53.4211 32.0192 53.4211 33.5C53.4211 34.9808 52.8388 36.4009 51.8024 37.448C50.766 38.4951 49.3604 39.0833 47.8947 39.0833Z" fill="#08711F"/>
</svg>
